<svg xmlns="http://www.w3.org/2000/svg" viewBox="0 0 48 48" width="24" height="24">
  <path fill="#FFC107" d="M43.6 20.5h-1.8v-.1H24v7h11.3c-1.6 4.5-5.9 7.5-11.3 7.5-6.6 0-12-5.4-12-12s5.4-12 12-12c3.1 0 6 .9 8.2 2.8l5.4-5.4C33.6 5.2 29.1 3.5 24 3.5 12.6 3.5 3.5 12.6 3.5 24S12.6 44.5 24 44.5c11.1 0 20.5-9 20.5-20.5 0-1.6-.2-2.7-.5-3.5z"></path>
  <path fill="#FF3D00" d="M6.3 14.1l5.7 4.2C13.4 15.2 18.3 12 24 12c3.1 0 6 .9 8.2 2.8l5.4-5.4C33.6 5.2 29.1 3.5 24 3.5 16.3 3.5 9.6 7.8 6.3 14.1z"></path>
  <path fill="#4CAF50" d="M24 44.5c5.1 0 9.6-1.7 13.2-4.6l-6.1-5c-2.1 1.5-4.8 2.4-7.1 2.4-5.4 0-9.7-3.1-11.3-7.5l-5.7 4.4C9.5 39.8 16.1 44.5 24 44.5z"></path>
  <path fill="#1976D2" d="M43.6 20.5H24v7h11.3c-1 2.8-3.4 5-6.4 6.1l6.1 5c3.6-3.1 5.6-7.6 5.6-13.1 0-1.2-.1-2.3-.3-3.4z"></path>
</svg>
